<svg xmlns="http://www.w3.org/2000/svg" xmlns:xlink="http://www.w3.org/1999/xlink" width="500" zoomAndPan="magnify" viewBox="0 0 375 374.999991" height="500" preserveAspectRatio="xMidYMid meet" version="1.0"><defs><clipPath id="3db7c201fc"><path d="M 96.335938 106 L 289.835938 106 L 289.835938 242.984375 L 96.335938 242.984375 Z M 96.335938 106 " clip-rule="nonzero"/></clipPath></defs><g clip-path="url(#3db7c201fc)"><path fill="#00361e" d="M 282.929688 209.929688 C 282.25 216.085938 276.546875 220.910156 269.96875 220.910156 L 266.226562 220.910156 L 265.316406 221.820312 C 255.90625 231.238281 243.390625 236.429688 230.078125 236.429688 L 219.285156 236.429688 C 221.601562 233.859375 223.234375 230.671875 223.839844 227.117188 C 223.925781 227.117188 224.011719 227.117188 224.097656 227.117188 C 225.355469 227.117188 226.589844 226.984375 227.789062 226.742188 C 240.460938 225.445312 247.984375 220.546875 252.890625 214.570312 L 252.984375 214.546875 C 253.070312 214.511719 261.949219 211.601562 273.710938 211.601562 L 273.710938 205.394531 C 267.339844 205.394531 261.792969 206.183594 257.757812 206.972656 C 259.128906 204.265625 260.242188 201.550781 261.257812 199.042969 C 262.96875 194.789062 264.457031 191.113281 266.601562 188.96875 L 262.214844 184.582031 C 259.175781 187.625 257.394531 192.035156 255.503906 196.726562 C 254.535156 199.128906 253.519531 201.613281 252.308594 204.011719 L 248.683594 194.933594 L 242.917969 197.238281 L 248.214844 210.460938 C 246.273438 212.839844 243.875 214.960938 240.789062 216.667969 C 242 214.195312 242.703125 211.433594 242.703125 208.5 C 242.703125 202.558594 239.878906 197.078125 235.15625 193.597656 C 235.265625 193.34375 235.300781 193.066406 235.398438 192.800781 C 236.171875 191.683594 237.128906 190.652344 238.269531 189.757812 C 242.582031 186.363281 245.863281 186.496094 248.503906 187.089844 L 251.664062 187.792969 L 252.234375 184.605469 C 253.386719 178.046875 259.464844 173.621094 266.117188 174.46875 C 270.960938 175.113281 275.09375 178.75 276.363281 183.511719 C 277.503906 187.707031 276.242188 191.066406 274.996094 193.140625 L 273.273438 195.988281 L 276.230469 197.503906 C 280.882812 199.890625 283.511719 204.777344 282.929688 209.929688 Z M 196.527344 236.429688 C 197.421875 231.375 200.195312 224.574219 203.660156 217.554688 L 221.976562 211.445312 L 220.015625 205.550781 L 207.765625 209.636719 C 212.492188 200.996094 217.519531 192.933594 220.472656 188.496094 L 215.3125 185.054688 C 214.804688 185.816406 208.773438 194.910156 202.726562 205.917969 L 199.128906 195.101562 L 193.242188 197.066406 L 198.730469 213.527344 C 194.734375 221.519531 191.316406 229.726562 190.300781 236.039062 C 180.875 233.519531 180.683594 218.5 180.683594 217.808594 C 180.683594 213.941406 183.03125 210.535156 186.667969 209.140625 L 189.886719 207.902344 L 188.3125 204.824219 C 187.367188 202.980469 186.882812 201.089844 186.882812 199.1875 C 186.882812 192.339844 192.445312 186.773438 199.289062 186.773438 C 200.148438 186.773438 201.019531 186.882812 201.988281 187.089844 L 205.152344 187.792969 L 205.71875 184.605469 C 206.761719 178.664062 211.886719 174.359375 217.894531 174.359375 C 224.738281 174.359375 230.296875 179.925781 230.296875 186.773438 C 230.296875 188.992188 229.679688 191.140625 228.480469 193.140625 L 226.761719 195.988281 L 229.714844 197.503906 C 233.894531 199.660156 236.5 203.867188 236.5 208.5 C 236.5 214.449219 232.296875 219.421875 226.699219 220.621094 C 225.621094 220.730469 224.496094 220.789062 223.332031 220.839844 C 222.75 220.800781 222.15625 220.777344 221.589844 220.65625 L 217.761719 219.867188 L 217.859375 223.785156 C 217.871094 223.917969 217.871094 224.039062 217.894531 224.171875 C 217.808594 230.949219 212.273438 236.429688 205.488281 236.429688 Z M 124.539062 224.863281 L 119.789062 220.910156 L 116.203125 220.910156 C 109.625 220.910156 103.933594 216.085938 103.242188 209.929688 C 102.660156 204.777344 105.289062 199.890625 109.941406 197.503906 L 112.898438 195.988281 L 111.175781 193.140625 C 109.929688 191.066406 108.667969 187.707031 109.808594 183.511719 C 111.082031 178.75 115.210938 175.113281 120.054688 174.46875 C 126.71875 173.621094 132.785156 178.046875 133.9375 184.605469 L 134.507812 187.792969 L 137.667969 187.089844 C 140.308594 186.496094 143.605469 186.363281 147.902344 189.757812 C 150.242188 191.585938 151.851562 193.976562 152.445312 196.449219 C 153.113281 199.285156 152.75 202.097656 151.34375 204.824219 L 149.769531 207.902344 L 152.992188 209.140625 C 156.625 210.535156 158.976562 213.941406 158.976562 217.808594 C 158.976562 225.859375 168.363281 228.34375 176.46875 229.359375 C 176.527344 229.542969 176.601562 229.726562 176.671875 229.90625 C 150.824219 227.542969 140.914062 212.207031 132.882812 199.746094 C 129.953125 195.199219 127.191406 190.921875 123.957031 187.683594 L 119.570312 192.070312 C 122.332031 194.835938 124.925781 198.859375 127.675781 203.105469 C 129.296875 205.625 131.03125 208.316406 132.992188 211.042969 L 116.542969 205.550781 L 114.582031 211.445312 L 140.613281 220.125 C 148.980469 228.535156 160.949219 235.53125 180.171875 236.320312 C 180.199219 236.355469 180.234375 236.390625 180.257812 236.429688 L 156.433594 236.429688 C 144.804688 236.429688 133.464844 232.320312 124.539062 224.863281 Z M 117.320312 153.5 L 119.945312 152.492188 L 119.183594 149.777344 C 118.832031 148.492188 118.664062 147.425781 118.664062 146.429688 C 118.664062 139.582031 124.222656 134.015625 131.066406 134.015625 C 132.933594 134.015625 134.796875 134.476562 136.613281 135.398438 L 139.898438 137.058594 L 140.976562 133.53125 C 142.585938 128.246094 147.324219 124.707031 152.773438 124.707031 C 156.03125 124.707031 159.109375 125.96875 161.457031 128.269531 L 163.628906 130.40625 L 165.796875 128.269531 C 169.382812 124.753906 174.820312 123.675781 179.582031 125.835938 L 183.46875 127.59375 L 183.941406 123.347656 C 184.632812 117.046875 189.902344 112.292969 196.1875 112.292969 C 202.472656 112.292969 207.742188 117.046875 208.433594 123.347656 L 208.90625 127.59375 L 212.792969 125.835938 C 216.5625 124.125 220.679688 124.378906 224.253906 126.527344 L 227.101562 128.246094 L 228.613281 125.289062 C 230.769531 121.105469 234.972656 118.5 239.601562 118.5 C 246.445312 118.5 252.003906 124.066406 252.003906 130.914062 L 252.003906 134.015625 L 255.105469 134.015625 C 261.949219 134.015625 267.507812 139.582031 267.507812 146.429688 C 267.507812 146.550781 267.484375 146.660156 267.472656 146.769531 C 267.4375 146.988281 267.414062 147.207031 267.398438 147.425781 L 267.21875 149.65625 L 269.265625 150.527344 C 273.84375 152.480469 276.8125 156.964844 276.8125 161.949219 C 276.8125 165.207031 275.527344 168.203125 273.3125 170.492188 C 271.347656 169.402344 269.207031 168.628906 266.929688 168.324219 C 258.023438 167.148438 249.738281 172.410156 246.878906 180.617188 C 243.160156 180.386719 239.636719 181.441406 236.222656 183.671875 C 234.730469 174.882812 227.101562 168.15625 217.894531 168.15625 C 209.886719 168.15625 202.933594 173.246094 200.367188 180.605469 C 189.753906 179.972656 180.683594 188.554688 180.683594 199.1875 C 180.683594 201.078125 180.984375 202.957031 181.589844 204.789062 C 177.195312 207.601562 174.480469 212.4375 174.480469 217.808594 C 174.480469 219.300781 174.601562 221.03125 174.878906 222.851562 C 170.144531 222.050781 165.175781 220.558594 165.175781 217.808594 C 165.175781 212.4375 162.464844 207.601562 158.066406 204.789062 C 159.109375 201.601562 159.253906 198.265625 158.480469 195.003906 C 157.570312 191.175781 155.171875 187.574219 151.746094 184.871094 C 147.78125 181.753906 143.664062 180.335938 139.292969 180.617188 C 136.433594 172.410156 128.160156 167.148438 119.246094 168.324219 C 116.3125 168.710938 113.574219 169.851562 111.203125 171.5 C 110.015625 169.574219 109.359375 167.367188 109.359375 165.050781 C 109.359375 159.898438 112.484375 155.363281 117.320312 153.5 Z M 281.683594 193.613281 C 283.195312 189.890625 283.4375 185.890625 282.359375 181.902344 C 281.597656 179.066406 280.132812 176.507812 278.21875 174.375 C 281.257812 170.980469 283.015625 166.554688 283.015625 161.949219 C 283.015625 155.230469 279.429688 149.109375 273.699219 145.8125 C 273.410156 136.804688 266.6875 129.386719 257.988281 128.027344 C 256.59375 119.128906 248.878906 112.292969 239.601562 112.292969 C 233.664062 112.292969 228.191406 115.117188 224.714844 119.847656 C 221.238281 118.441406 217.410156 118.136719 213.8125 118.960938 C 211.390625 111.421875 204.363281 106.085938 196.1875 106.085938 C 188.011719 106.085938 180.984375 111.421875 178.5625 118.960938 C 173.390625 117.773438 167.878906 118.9375 163.628906 122.003906 C 160.476562 119.726562 156.710938 118.5 152.773438 118.5 C 145.699219 118.5 139.4375 122.453125 136.300781 128.597656 C 134.578125 128.078125 132.835938 127.8125 131.066406 127.8125 C 120.808594 127.8125 112.460938 136.164062 112.460938 146.429688 C 112.460938 147.21875 112.523438 148.019531 112.65625 148.855469 C 106.804688 152.117188 103.160156 158.226562 103.160156 165.050781 C 103.160156 169.027344 104.417969 172.796875 106.707031 175.949219 C 105.421875 177.730469 104.394531 179.71875 103.8125 181.902344 C 102.734375 185.890625 102.976562 189.890625 104.492188 193.613281 C 99.183594 197.515625 96.328125 203.914062 97.078125 210.621094 C 98.132812 220.027344 106.355469 227.117188 116.203125 227.117188 L 117.535156 227.117188 L 120.566406 229.640625 C 130.605469 238.015625 143.351562 242.636719 156.433594 242.636719 L 230.078125 242.636719 C 244.617188 242.636719 258.304688 237.132812 268.769531 227.117188 L 269.96875 227.117188 C 279.816406 227.117188 288.042969 220.027344 289.09375 210.621094 C 289.847656 203.914062 286.988281 197.515625 281.683594 193.613281 " fill-opacity="1" fill-rule="nonzero"/></g><path fill="#00361e" d="M 168.277344 180.566406 L 168.277344 174.359375 C 164.863281 174.359375 162.078125 171.574219 162.078125 168.15625 C 162.078125 164.734375 164.863281 161.949219 168.167969 161.949219 L 170.980469 162.152344 L 171.753906 159.921875 C 172.628906 157.425781 174.964844 155.742188 177.582031 155.742188 C 179.703125 155.742188 181.652344 156.820312 182.800781 158.636719 L 184.390625 161.136719 L 186.957031 159.679688 C 187.9375 159.125 188.957031 158.84375 189.984375 158.84375 C 193.402344 158.84375 196.1875 161.632812 196.1875 165.050781 L 202.390625 165.050781 C 202.390625 158.203125 196.828125 152.636719 189.984375 152.636719 C 188.75 152.636719 187.539062 152.820312 186.363281 153.195312 C 184.0625 150.867188 180.925781 149.535156 177.582031 149.535156 C 173.085938 149.535156 169.003906 151.984375 166.824219 155.824219 C 160.671875 156.539062 155.875 161.800781 155.875 168.15625 C 155.875 175.003906 161.433594 180.566406 168.277344 180.566406 " fill-opacity="1" fill-rule="nonzero"/><path fill="#00361e" d="M 208.589844 140.164062 C 209.621094 140.164062 210.636719 140.453125 211.621094 141.011719 L 214.1875 142.453125 L 215.773438 139.96875 C 216.925781 138.152344 218.875 137.058594 220.996094 137.058594 C 223.613281 137.058594 225.949219 138.746094 226.820312 141.242188 L 227.597656 143.460938 L 229.921875 143.328125 L 230.296875 143.265625 C 233.714844 143.265625 236.5 146.054688 236.5 149.472656 L 242.703125 149.472656 C 242.703125 143.121094 237.90625 137.871094 231.738281 137.144531 C 229.570312 133.3125 225.488281 130.851562 220.996094 130.851562 C 217.652344 130.851562 214.515625 132.1875 212.214844 134.527344 C 211.039062 134.152344 209.828125 133.957031 208.589844 133.957031 C 201.746094 133.957031 196.1875 139.53125 196.1875 146.371094 L 202.390625 146.371094 C 202.390625 142.953125 205.175781 140.164062 208.589844 140.164062 " fill-opacity="1" fill-rule="nonzero"/><path fill="#00361e" d="M 233.398438 152.636719 C 228.261719 152.636719 224.097656 156.808594 224.097656 161.949219 L 230.296875 161.949219 C 230.296875 160.238281 231.691406 158.84375 233.398438 158.84375 C 235.105469 158.84375 236.5 160.238281 236.5 161.949219 L 236.5 165.050781 L 239.601562 165.050781 C 241.308594 165.050781 242.703125 166.445312 242.703125 168.15625 L 248.902344 168.15625 C 248.902344 163.960938 246.117188 160.40625 242.300781 159.246094 C 241.140625 155.425781 237.589844 152.636719 233.398438 152.636719 " fill-opacity="1" fill-rule="nonzero"/><path fill="#00361e" d="M 131.066406 158.84375 L 134.167969 158.84375 L 134.167969 155.742188 C 134.167969 154.03125 135.5625 152.636719 137.269531 152.636719 C 138.976562 152.636719 140.371094 154.03125 140.371094 155.742188 L 146.570312 155.742188 C 146.570312 150.601562 142.40625 146.429688 137.269531 146.429688 C 133.078125 146.429688 129.527344 149.21875 128.367188 153.039062 C 124.550781 154.203125 121.765625 157.753906 121.765625 161.949219 L 127.964844 161.949219 C 127.964844 160.238281 129.359375 158.84375 131.066406 158.84375 " fill-opacity="1" fill-rule="nonzero"/></svg>