<svg xmlns="http://www.w3.org/2000/svg" xmlns:xlink="http://www.w3.org/1999/xlink" width="500" zoomAndPan="magnify" viewBox="0 0 375 374.999991" height="500" preserveAspectRatio="xMidYMid meet" version="1.0"><defs><clipPath id="aa71d50249"><path d="M 211 111 L 264 111 L 264 161 L 211 161 Z M 211 111 " clip-rule="nonzero"/></clipPath><clipPath id="41eb68ab88"><path d="M 142.242188 87.6875 L 268.402344 118 L 238.089844 244.15625 L 111.929688 213.847656 Z M 142.242188 87.6875 " clip-rule="nonzero"/></clipPath><clipPath id="b854b58307"><path d="M 142.242188 87.6875 L 268.402344 118 L 238.089844 244.15625 L 111.929688 213.847656 Z M 142.242188 87.6875 " clip-rule="nonzero"/></clipPath><clipPath id="4559f093fc"><path d="M 114 128 L 233 128 L 233 214 L 114 214 Z M 114 128 " clip-rule="nonzero"/></clipPath><clipPath id="b6285543bd"><path d="M 142.242188 87.6875 L 268.402344 118 L 238.089844 244.15625 L 111.929688 213.847656 Z M 142.242188 87.6875 " clip-rule="nonzero"/></clipPath><clipPath id="18837dd5e3"><path d="M 142.242188 87.6875 L 268.402344 118 L 238.089844 244.15625 L 111.929688 213.847656 Z M 142.242188 87.6875 " clip-rule="nonzero"/></clipPath><clipPath id="93c0f1376b"><path d="M 148 131 L 207 131 L 207 209 L 148 209 Z M 148 131 " clip-rule="nonzero"/></clipPath><clipPath id="db50f67096"><path d="M 142.242188 87.6875 L 268.402344 118 L 238.089844 244.15625 L 111.929688 213.847656 Z M 142.242188 87.6875 " clip-rule="nonzero"/></clipPath><clipPath id="2f9bdc77fd"><path d="M 142.242188 87.6875 L 268.402344 118 L 238.089844 244.15625 L 111.929688 213.847656 Z M 142.242188 87.6875 " clip-rule="nonzero"/></clipPath></defs><g clip-path="url(#aa71d50249)"><g clip-path="url(#41eb68ab88)"><g clip-path="url(#b854b58307)"><path fill="#00361e" d="M 243.691406 145.175781 C 257.867188 140.714844 266.144531 119.730469 263.074219 121.609375 C 266.144531 119.730469 243.25 116.847656 232.839844 127.453125 C 234.027344 122.5 233.835938 101.484375 222.234375 117.042969 C 210.632812 132.605469 212.515625 135.679688 211.324219 140.632812 C 210.132812 145.589844 220.046875 147.96875 220.046875 147.96875 C 220.046875 147.96875 217.332031 157.339844 222.292969 158.53125 C 227.246094 159.722656 228.796875 162.257812 247.929688 158.992188 C 267.0625 155.722656 248.648438 146.363281 243.691406 145.175781 Z M 243.691406 145.175781 " fill-opacity="1" fill-rule="nonzero"/></g></g></g><g clip-path="url(#4559f093fc)"><g clip-path="url(#b6285543bd)"><g clip-path="url(#18837dd5e3)"><path fill="#63ae4c" d="M 200.953125 189.25 C 167.851562 209.523438 119.316406 218.125 114.609375 210.4375 C 109.902344 202.753906 139.617188 163.421875 172.710938 143.148438 C 205.808594 122.871094 219.484375 126.355469 228.324219 140.78125 C 237.160156 155.210938 234.050781 168.976562 200.953125 189.25 Z M 200.953125 189.25 " fill-opacity="1" fill-rule="nonzero"/></g></g></g><g clip-path="url(#93c0f1376b)"><g clip-path="url(#db50f67096)"><g clip-path="url(#2f9bdc77fd)"><path fill="#ffffff" d="M 206.640625 157.128906 C 204.054688 152.90625 199.277344 145.039062 195.339844 131.78125 C 192.285156 132.871094 188.976562 134.296875 185.375 136.089844 C 192.15625 151.109375 209.359375 161.558594 206.640625 157.128906 Z M 173.613281 179.117188 C 170.84375 174.589844 165.5625 165.875 161.488281 150.824219 C 158.378906 153.164062 155.335938 155.621094 152.386719 158.164062 C 159.195312 173.132812 176.320312 183.53125 173.613281 179.117188 Z M 206.503906 185.714844 C 195.644531 175.664062 190.558594 167.390625 187.863281 162.996094 C 185.148438 158.554688 186.652344 178.699219 197 191.5625 C 198.335938 190.808594 204.746094 186.875 206.503906 185.714844 Z M 155.957031 208.132812 C 159.507812 207.164062 163.144531 206.0625 166.816406 204.824219 C 156.953125 195.390625 152.15625 187.648438 149.585938 183.453125 C 147.132812 179.445312 148.121094 195.507812 155.957031 208.132812 Z M 155.957031 208.132812 " fill-opacity="1" fill-rule="nonzero"/></g></g></g></svg>