<svg xmlns="http://www.w3.org/2000/svg" xmlns:xlink="http://www.w3.org/1999/xlink" width="800" zoomAndPan="magnify" viewBox="0 0 375 374.999991" height="800" preserveAspectRatio="xMidYMid meet" version="1.0"><defs><clipPath id="3bb30df707"><path d="M 91.242188 81.175781 L 283.992188 81.175781 L 283.992188 273.925781 L 91.242188 273.925781 Z M 91.242188 81.175781 " clip-rule="nonzero"/></clipPath></defs><g clip-path="url(#3bb30df707)"><path fill="#ae3e2f" d="M 182.917969 104.679688 L 192.320312 104.679688 L 192.320312 109.851562 C 190.675781 109.617188 189.265625 109.382812 187.617188 109.382812 C 185.972656 109.382812 184.5625 109.617188 182.917969 109.851562 Z M 239.097656 116.90625 C 239.332031 117.140625 240.273438 117.375 241.683594 118.316406 L 241.683594 107.03125 C 241.683594 104.445312 239.566406 102.332031 236.980469 102.332031 C 234.394531 102.332031 232.28125 104.445312 232.28125 107.03125 L 232.28125 118.316406 C 233.691406 117.609375 234.632812 117.140625 234.867188 116.90625 C 236.277344 116.199219 237.6875 116.199219 239.097656 116.90625 Z M 211.125 146.523438 L 209.246094 175.199219 L 274.589844 175.199219 C 274.589844 174.257812 274.828125 173.320312 274.828125 172.613281 C 274.828125 149.34375 245.445312 131.242188 237.21875 126.542969 C 232.28125 129.128906 220.292969 136.414062 211.125 146.523438 Z M 111.222656 129.597656 C 112.398438 128.421875 113.339844 127.246094 114.75 126.308594 C 115.925781 125.367188 117.335938 124.660156 118.746094 123.957031 L 118.511719 123.488281 L 117.570312 122.074219 L 118.746094 123.488281 L 116.160156 108.441406 C 115.691406 108.914062 115.457031 109.382812 115.21875 109.851562 C 115.457031 109.382812 115.691406 108.914062 116.160156 108.441406 C 116.628906 107.738281 117.335938 107.265625 118.039062 106.5625 C 120.15625 104.917969 120.625 102.097656 118.980469 99.980469 C 117.570312 97.863281 114.515625 97.394531 112.398438 99.039062 C 108.402344 102.097656 105.582031 106.328125 104.878906 111.261719 C 104.171875 116.199219 105.347656 121.136719 108.167969 125.132812 Z M 101.117188 175.199219 L 165.992188 175.199219 L 163.171875 135.472656 C 162.9375 132.652344 163.40625 129.597656 164.113281 126.777344 L 161.292969 121.839844 C 159.410156 118.785156 156.355469 116.433594 152.828125 115.730469 C 149.070312 115.023438 145.308594 115.730469 142.488281 118.078125 C 139.429688 120.429688 137.550781 123.722656 137.082031 127.484375 C 137.082031 128.894531 136.375 130.066406 135.199219 130.773438 C 134.023438 131.476562 132.851562 131.949219 131.441406 131.714844 C 127.445312 131.007812 123.683594 131.714844 120.390625 134.0625 C 117.101562 136.414062 115.21875 139.941406 114.75 143.9375 C 114.515625 145.347656 113.808594 146.523438 112.871094 147.226562 C 111.695312 147.933594 110.519531 148.402344 109.109375 147.933594 C 108.167969 147.699219 107.226562 147.699219 106.289062 147.699219 C 103.46875 147.699219 100.882812 148.636719 98.53125 150.285156 C 95.476562 152.398438 93.59375 155.691406 93.125 159.449219 C 92.65625 163.210938 93.828125 166.738281 96.414062 169.558594 Z M 279.292969 184.601562 L 95.945312 184.601562 C 93.359375 184.601562 91.242188 186.71875 91.242188 189.304688 L 91.242188 203.40625 C 91.242188 205.992188 93.359375 208.109375 95.945312 208.109375 L 279.292969 208.109375 C 281.878906 208.109375 283.992188 205.992188 283.992188 203.40625 L 283.992188 189.304688 C 283.992188 186.71875 281.878906 184.601562 279.292969 184.601562 Z M 100.644531 217.511719 L 100.644531 241.015625 L 274.589844 241.015625 L 274.589844 217.511719 Z M 279.292969 250.417969 L 95.945312 250.417969 C 93.359375 250.417969 91.242188 252.535156 91.242188 255.121094 L 91.242188 269.222656 C 91.242188 271.808594 93.359375 273.925781 95.945312 273.925781 L 279.292969 273.925781 C 281.878906 273.925781 283.992188 271.808594 283.992188 269.222656 L 283.992188 255.121094 C 283.992188 252.535156 281.878906 250.417969 279.292969 250.417969 Z M 215.828125 81.175781 L 206.425781 81.175781 C 198.667969 81.175781 192.320312 87.523438 192.320312 95.277344 L 201.722656 95.277344 C 209.480469 95.277344 215.828125 88.933594 215.828125 81.175781 Z M 173.515625 95.277344 L 182.917969 95.277344 C 182.917969 87.523438 176.570312 81.175781 168.8125 81.175781 L 159.410156 81.175781 C 159.410156 88.933594 165.757812 95.277344 173.515625 95.277344 Z M 187.617188 118.785156 C 183.386719 118.785156 179.390625 120.429688 176.570312 123.488281 C 173.75 126.542969 172.339844 130.539062 172.574219 134.769531 L 175.632812 175.199219 L 199.84375 175.199219 L 202.664062 134.769531 C 202.898438 130.539062 201.488281 126.542969 198.667969 123.488281 C 195.847656 120.429688 191.851562 118.785156 187.617188 118.785156 Z M 187.617188 118.785156 " fill-opacity="1" fill-rule="nonzero"/></g></svg>