<svg xmlns="http://www.w3.org/2000/svg" xmlns:xlink="http://www.w3.org/1999/xlink" width="800" zoomAndPan="magnify" viewBox="0 0 375 374.999991" height="800" preserveAspectRatio="xMidYMid meet" version="1.0"><defs><clipPath id="bd4af6f207"><path d="M 107 167 L 255 167 L 255 233.894531 L 107 233.894531 Z M 107 167 " clip-rule="nonzero"/></clipPath><clipPath id="d4ee2e1135"><path d="M 171 86.144531 L 191 86.144531 L 191 125 L 171 125 Z M 171 86.144531 " clip-rule="nonzero"/></clipPath></defs><g clip-path="url(#bd4af6f207)"><path fill="#ae3e2f" d="M 133.335938 229.128906 L 114.554688 229.128906 L 114.554688 233.894531 L 247.839844 233.894531 L 247.839844 229.128906 L 229.058594 229.128906 C 240.507812 221.980469 256.191406 206.15625 254.929688 174.722656 C 254.871094 173.746094 254.644531 172.8125 254.242188 171.921875 C 253.839844 171.03125 253.292969 170.242188 252.597656 169.550781 C 252.15625 169.09375 251.667969 168.695312 251.125 168.359375 C 250.585938 168.023438 250.011719 167.757812 249.402344 167.566406 C 248.796875 167.375 248.175781 167.261719 247.539062 167.226562 C 246.902344 167.191406 246.273438 167.238281 245.648438 167.359375 C 245.015625 167.484375 244.40625 167.6875 243.820312 167.96875 C 243.238281 168.25 242.699219 168.597656 242.203125 169.011719 C 241.707031 169.429688 241.273438 169.902344 240.898438 170.429688 C 240.523438 170.957031 240.21875 171.523438 239.984375 172.125 L 238.890625 174.914062 C 238.492188 174.324219 238.015625 173.804688 237.464844 173.359375 C 236.914062 172.910156 236.308594 172.550781 235.648438 172.285156 C 234.988281 172.019531 234.308594 171.855469 233.597656 171.792969 C 232.890625 171.730469 232.1875 171.769531 231.492188 171.917969 C 230.800781 172.066406 230.140625 172.3125 229.519531 172.65625 C 228.894531 173 228.339844 173.425781 227.84375 173.9375 C 227.347656 174.449219 226.941406 175.019531 226.617188 175.65625 C 226.292969 176.289062 226.066406 176.953125 225.941406 177.65625 C 224.230469 185.515625 223.660156 193.460938 224.230469 201.484375 L 217.828125 203.414062 L 220.632812 191.738281 C 220.832031 190.933594 220.90625 190.113281 220.855469 189.285156 C 220.800781 188.457031 220.628906 187.652344 220.328125 186.878906 C 220.03125 186.101562 219.625 185.390625 219.109375 184.738281 C 218.589844 184.089844 217.988281 183.53125 217.300781 183.0625 C 216.902344 182.796875 216.480469 182.566406 216.035156 182.375 C 215.59375 182.183594 215.136719 182.039062 214.664062 181.933594 C 214.195312 181.828125 213.71875 181.769531 213.234375 181.753906 C 212.753906 181.738281 212.273438 181.765625 211.796875 181.839844 C 211.320312 181.914062 210.855469 182.035156 210.402344 182.195312 C 209.945312 182.355469 209.511719 182.558594 209.09375 182.800781 C 208.675781 183.046875 208.285156 183.324219 207.921875 183.640625 C 207.558594 183.957031 207.226562 184.304688 206.925781 184.683594 C 199.191406 194.21875 186.503906 211.972656 188.457031 222.050781 L 193.214844 221.144531 C 192.074219 215.234375 198.621094 202.726562 210.734375 187.78125 C 210.964844 187.480469 211.242188 187.230469 211.566406 187.039062 C 211.890625 186.84375 212.242188 186.714844 212.617188 186.65625 C 212.992188 186.59375 213.363281 186.605469 213.734375 186.691406 C 214.101562 186.773438 214.445312 186.925781 214.757812 187.140625 C 215.039062 187.335938 215.285156 187.566406 215.496094 187.839844 C 215.707031 188.109375 215.875 188.40625 215.996094 188.726562 C 216.117188 189.046875 216.1875 189.378906 216.207031 189.722656 C 216.226562 190.066406 216.195312 190.40625 216.113281 190.738281 L 212.304688 206.441406 C 212.1875 206.871094 212.191406 207.300781 212.316406 207.730469 C 212.441406 208.160156 212.667969 208.523438 212.996094 208.824219 C 213.3125 209.128906 213.683594 209.328125 214.109375 209.429688 C 214.535156 209.527344 214.957031 209.507812 215.375 209.375 L 231.796875 204.464844 C 232.527344 204.230469 233.042969 203.761719 233.34375 203.058594 L 244.578125 173.984375 C 244.753906 173.507812 245.035156 173.097656 245.417969 172.765625 C 245.804688 172.429688 246.246094 172.210938 246.742188 172.101562 C 247.222656 172.011719 247.695312 172.039062 248.160156 172.1875 C 248.621094 172.335938 249.023438 172.585938 249.363281 172.9375 C 249.914062 173.527344 250.207031 174.226562 250.242188 175.035156 C 250.625 184.707031 249.480469 217.070312 218.753906 229.25 L 143.710938 229.25 C 112.984375 216.953125 111.84375 184.589844 112.175781 174.914062 C 112.210938 174.105469 112.503906 173.40625 113.058594 172.816406 C 113.394531 172.449219 113.800781 172.1875 114.273438 172.027344 C 114.75 171.871094 115.230469 171.839844 115.722656 171.933594 C 116.222656 172.042969 116.664062 172.265625 117.046875 172.597656 C 117.433594 172.933594 117.710938 173.339844 117.886719 173.816406 L 129.121094 202.914062 C 129.425781 203.617188 129.941406 204.085938 130.667969 204.320312 L 147.089844 209.230469 C 147.507812 209.367188 147.929688 209.382812 148.355469 209.285156 C 148.785156 209.1875 149.15625 208.984375 149.472656 208.683594 C 149.800781 208.382812 150.027344 208.015625 150.152344 207.589844 C 150.273438 207.160156 150.277344 206.730469 150.160156 206.300781 L 146.355469 190.59375 C 146.269531 190.261719 146.238281 189.921875 146.261719 189.582031 C 146.28125 189.238281 146.351562 188.90625 146.472656 188.582031 C 146.59375 188.261719 146.757812 187.964844 146.96875 187.695312 C 147.179688 187.425781 147.429688 187.191406 147.710938 186.996094 C 148.023438 186.78125 148.363281 186.632812 148.734375 186.546875 C 149.101562 186.464844 149.476562 186.453125 149.851562 186.511719 C 150.222656 186.570312 150.574219 186.699219 150.898438 186.894531 C 151.226562 187.089844 151.503906 187.335938 151.734375 187.640625 C 163.847656 202.699219 170.390625 215.210938 169.25 221.003906 L 174.007812 221.910156 C 175.960938 211.828125 163.277344 194.167969 155.539062 184.542969 C 155.242188 184.164062 154.910156 183.816406 154.542969 183.5 C 154.179688 183.183594 153.789062 182.902344 153.371094 182.660156 C 152.957031 182.417969 152.519531 182.214844 152.066406 182.050781 C 151.609375 181.890625 151.144531 181.773438 150.667969 181.699219 C 150.191406 181.625 149.710938 181.59375 149.230469 181.609375 C 148.75 181.625 148.273438 181.683594 147.800781 181.789062 C 147.328125 181.894531 146.871094 182.042969 146.429688 182.230469 C 145.984375 182.421875 145.5625 182.652344 145.164062 182.921875 C 144.476562 183.386719 143.875 183.945312 143.359375 184.59375 C 142.84375 185.246094 142.433594 185.960938 142.136719 186.734375 C 141.839844 187.511719 141.664062 188.3125 141.613281 189.140625 C 141.558594 189.972656 141.632812 190.789062 141.832031 191.597656 L 144.640625 203.273438 L 138.238281 201.34375 C 138.804688 193.316406 138.234375 185.375 136.523438 177.511719 C 136.398438 176.8125 136.175781 176.144531 135.851562 175.511719 C 135.527344 174.878906 135.117188 174.304688 134.621094 173.796875 C 134.128906 173.285156 133.570312 172.855469 132.949219 172.511719 C 132.324219 172.167969 131.667969 171.921875 130.972656 171.777344 C 130.277344 171.628906 129.574219 171.585938 128.867188 171.648438 C 128.160156 171.710938 127.476562 171.875 126.816406 172.144531 C 126.160156 172.410156 125.554688 172.765625 125 173.214844 C 124.449219 173.664062 123.972656 174.179688 123.578125 174.769531 L 122.480469 171.984375 C 122.367188 171.683594 122.234375 171.390625 122.082031 171.105469 C 121.929688 170.820312 121.757812 170.546875 121.574219 170.285156 C 121.386719 170.019531 121.183594 169.769531 120.964844 169.535156 C 120.746094 169.296875 120.511719 169.074219 120.265625 168.867188 C 120.019531 168.660156 119.761719 168.46875 119.488281 168.296875 C 119.21875 168.121094 118.9375 167.964844 118.644531 167.828125 C 118.355469 167.6875 118.054688 167.570312 117.75 167.46875 C 117.445312 167.367188 117.132812 167.289062 116.816406 167.226562 C 116.5 167.167969 116.179688 167.125 115.859375 167.105469 C 115.539062 167.085938 115.214844 167.085938 114.894531 167.109375 C 114.574219 167.128906 114.253906 167.171875 113.9375 167.230469 C 113.621094 167.292969 113.308594 167.375 113.003906 167.476562 C 112.699219 167.578125 112.398438 167.699219 112.109375 167.835938 C 111.820312 167.976562 111.539062 168.132812 111.269531 168.308594 C 110.996094 168.484375 110.738281 168.675781 110.492188 168.882812 C 110.246094 169.09375 110.015625 169.316406 109.796875 169.550781 C 109.09375 170.238281 108.539062 171.027344 108.128906 171.917969 C 107.71875 172.808594 107.480469 173.746094 107.417969 174.722656 C 106.203125 206.15625 121.886719 221.980469 133.335938 229.128906 Z M 229.25 200.128906 L 228.964844 200.128906 C 228.566406 192.898438 229.144531 185.75 230.703125 178.679688 C 230.703125 178.363281 230.761719 178.058594 230.882812 177.769531 C 231.003906 177.476562 231.175781 177.21875 231.398438 176.996094 C 231.621094 176.769531 231.878906 176.597656 232.171875 176.476562 C 232.464844 176.355469 232.765625 176.296875 233.082031 176.296875 C 233.398438 176.296875 233.703125 176.355469 233.992188 176.476562 C 234.285156 176.597656 234.542969 176.769531 234.765625 176.996094 C 234.988281 177.21875 235.160156 177.476562 235.28125 177.769531 C 235.402344 178.058594 235.460938 178.363281 235.460938 178.679688 L 236.296875 181.753906 Z M 126.910156 178.679688 C 126.910156 178.363281 126.96875 178.058594 127.089844 177.769531 C 127.210938 177.476562 127.382812 177.21875 127.605469 176.996094 C 127.828125 176.769531 128.085938 176.597656 128.378906 176.476562 C 128.667969 176.355469 128.972656 176.296875 129.289062 176.296875 C 129.605469 176.296875 129.90625 176.355469 130.199219 176.476562 C 130.492188 176.597656 130.75 176.769531 130.972656 176.996094 C 131.195312 177.21875 131.367188 177.476562 131.488281 177.769531 C 131.609375 178.058594 131.667969 178.363281 131.667969 178.679688 C 133.226562 185.75 133.804688 192.898438 133.40625 200.128906 L 133.121094 200.128906 L 125.980469 181.660156 Z M 126.910156 178.679688 " fill-opacity="1" fill-rule="nonzero"/></g><path fill="#ae3e2f" d="M 181.199219 150.488281 C 174.9375 150.488281 171.675781 160.019531 171.675781 169.550781 C 171.675781 179.085938 174.9375 188.617188 181.199219 188.617188 C 187.457031 188.617188 190.71875 179.085938 190.71875 169.550781 C 190.71875 160.019531 187.457031 150.488281 181.199219 150.488281 Z M 181.199219 183.851562 C 179.507812 183.851562 176.4375 178.417969 176.4375 169.550781 C 176.4375 160.6875 179.507812 155.253906 181.199219 155.253906 C 182.886719 155.253906 185.957031 160.6875 185.957031 169.550781 C 185.957031 178.417969 182.886719 183.851562 181.199219 183.851562 Z M 181.199219 183.851562 " fill-opacity="1" fill-rule="nonzero"/><path fill="#ae3e2f" d="M 195.476562 133.804688 C 195.476562 143.339844 198.738281 152.871094 204.996094 152.871094 C 211.257812 152.871094 214.519531 143.339844 214.519531 133.804688 C 214.519531 124.273438 211.257812 114.742188 204.996094 114.742188 C 198.738281 114.742188 195.476562 124.273438 195.476562 133.804688 Z M 209.757812 133.804688 C 209.757812 142.671875 206.6875 148.105469 204.996094 148.105469 C 203.308594 148.105469 200.238281 142.671875 200.238281 133.804688 C 200.238281 124.941406 203.308594 119.507812 204.996094 119.507812 C 206.6875 119.507812 209.757812 124.941406 209.757812 133.804688 Z M 209.757812 133.804688 " fill-opacity="1" fill-rule="nonzero"/><g clip-path="url(#d4ee2e1135)"><path fill="#ae3e2f" d="M 181.199219 86.144531 C 174.9375 86.144531 171.675781 95.675781 171.675781 105.210938 C 171.675781 114.742188 174.9375 124.273438 181.199219 124.273438 C 187.457031 124.273438 190.71875 114.742188 190.71875 105.210938 C 190.71875 95.675781 187.457031 86.144531 181.199219 86.144531 Z M 181.199219 119.507812 C 179.507812 119.507812 176.4375 114.074219 176.4375 105.210938 C 176.4375 96.34375 179.507812 90.910156 181.199219 90.910156 C 182.886719 90.910156 185.957031 96.34375 185.957031 105.210938 C 185.957031 114.074219 182.886719 119.507812 181.199219 119.507812 Z M 181.199219 119.507812 " fill-opacity="1" fill-rule="nonzero"/></g><path fill="#ae3e2f" d="M 231.582031 134.210938 C 228.433594 137.273438 225.976562 140.816406 224.203125 144.839844 C 221.992188 150.394531 223.65625 153.226562 224.847656 154.371094 C 225.472656 154.964844 226.1875 155.410156 226.992188 155.710938 C 227.796875 156.015625 228.628906 156.148438 229.488281 156.113281 C 231.207031 156.0625 232.859375 155.695312 234.4375 155.015625 C 238.457031 153.242188 241.996094 150.78125 245.054688 147.628906 C 248.203125 144.566406 250.660156 141.023438 252.433594 137 C 254.644531 131.449219 252.980469 128.613281 251.789062 127.46875 C 250.597656 126.324219 247.742188 124.609375 242.269531 126.824219 C 238.226562 128.589844 234.664062 131.050781 231.582031 134.210938 Z M 247.171875 130.519531 C 247.628906 130.460938 248.042969 130.574219 248.410156 130.851562 C 248.886719 131.328125 248.957031 132.925781 248.003906 135.308594 C 246.472656 138.71875 244.363281 141.71875 241.675781 144.316406 C 239.082031 147.007812 236.082031 149.121094 232.679688 150.65625 C 230.296875 151.609375 228.703125 151.535156 228.226562 151.058594 C 227.75 150.582031 227.679688 148.988281 228.632812 146.605469 C 230.164062 143.195312 232.273438 140.191406 234.960938 137.59375 C 237.554688 134.902344 240.554688 132.789062 243.960938 131.257812 C 244.984375 130.804688 246.054688 130.558594 247.171875 130.519531 Z M 247.171875 130.519531 " fill-opacity="1" fill-rule="nonzero"/><path fill="#ae3e2f" d="M 117.339844 147.699219 C 120.402344 150.851562 123.9375 153.316406 127.957031 155.085938 C 129.535156 155.765625 131.1875 156.132812 132.90625 156.183594 C 133.765625 156.21875 134.597656 156.085938 135.402344 155.785156 C 136.207031 155.480469 136.921875 155.035156 137.546875 154.445312 C 138.738281 153.226562 140.402344 150.394531 138.191406 144.910156 C 136.417969 140.890625 133.960938 137.347656 130.8125 134.28125 C 127.753906 131.128906 124.214844 128.667969 120.195312 126.894531 C 114.652344 124.679688 111.820312 126.347656 110.675781 127.539062 C 109.535156 128.730469 107.820312 131.589844 110.035156 137.070312 C 111.78125 141.085938 114.21875 144.628906 117.339844 147.699219 Z M 113.984375 130.851562 C 114.351562 130.574219 114.765625 130.460938 115.222656 130.519531 C 116.339844 130.558594 117.414062 130.804688 118.4375 131.257812 C 121.839844 132.789062 124.839844 134.902344 127.433594 137.59375 C 130.121094 140.191406 132.230469 143.195312 133.761719 146.605469 C 134.714844 148.988281 134.644531 150.582031 134.167969 151.058594 C 133.691406 151.535156 132.121094 151.609375 129.71875 150.65625 C 126.3125 149.121094 123.3125 147.007812 120.71875 144.316406 C 118.03125 141.71875 115.921875 138.71875 114.390625 135.308594 C 113.4375 132.925781 113.507812 131.421875 113.984375 130.851562 Z M 113.984375 130.851562 " fill-opacity="1" fill-rule="nonzero"/><path fill="#ae3e2f" d="M 147.875 133.804688 C 147.875 143.339844 151.136719 152.871094 157.398438 152.871094 C 163.65625 152.871094 166.917969 143.339844 166.917969 133.804688 C 166.917969 124.273438 163.65625 114.742188 157.398438 114.742188 C 151.136719 114.742188 147.875 124.273438 147.875 133.804688 Z M 162.15625 133.804688 C 162.15625 142.671875 159.085938 148.105469 157.398438 148.105469 C 155.707031 148.105469 152.636719 142.671875 152.636719 133.804688 C 152.636719 124.941406 155.707031 119.507812 157.398438 119.507812 C 159.085938 119.507812 162.15625 124.941406 162.15625 133.804688 Z M 162.15625 133.804688 " fill-opacity="1" fill-rule="nonzero"/></svg>