<svg xmlns="http://www.w3.org/2000/svg" xmlns:xlink="http://www.w3.org/1999/xlink" width="500" zoomAndPan="magnify" viewBox="0 0 375 374.999991" height="500" preserveAspectRatio="xMidYMid meet" version="1.0"><defs><clipPath id="4e30230ff6"><path d="M 103.554688 103.554688 L 271.554688 103.554688 L 271.554688 271.554688 L 103.554688 271.554688 Z M 103.554688 103.554688 " clip-rule="nonzero"/></clipPath></defs><g clip-path="url(#4e30230ff6)"><path fill="#561d32" d="M 129.019531 157.671875 C 134.714844 197.980469 156.15625 210.828125 172.371094 214.660156 L 172.371094 222.222656 C 164.140625 220.515625 154.140625 216.742188 145.105469 208.636719 C 131.761719 196.664062 123.6875 178.222656 121.105469 153.816406 L 120.625 149.277344 L 125.167969 149.757812 C 151.53125 152.550781 170.875 161.707031 182.667969 176.980469 C 183.839844 178.496094 184.902344 180.03125 185.863281 181.570312 C 184.355469 184.148438 183.042969 186.835938 181.925781 189.625 C 180.476562 186.726562 178.753906 183.984375 176.753906 181.410156 C 166.917969 168.722656 150.875 160.75 129.019531 157.671875 Z M 180.601562 240.433594 L 180.601562 228.882812 C 180.601562 222.855469 180.046875 216.804688 180.347656 210.777344 C 180.777344 202.21875 183.175781 189.082031 192.519531 176.980469 C 204.308594 161.707031 223.652344 152.550781 250.019531 149.757812 L 254.5625 149.277344 L 254.078125 153.816406 C 252.71875 166.652344 249.835938 177.828125 245.472656 187.289062 L 239.855469 181.671875 C 242.640625 175.015625 244.832031 167.09375 246.164062 157.671875 C 224.261719 160.757812 208.191406 168.761719 198.363281 181.496094 C 190.339844 191.886719 188.195312 203.304688 187.761719 210.777344 C 187.453125 216.132812 187.984375 221.511719 187.984375 226.871094 L 187.984375 271.554688 C 189.777344 271.542969 191.554688 271.476562 193.316406 271.359375 L 193.316406 222.222656 L 233.886719 181.652344 L 256.5 204.265625 L 256.5 197.214844 L 264.285156 197.214844 L 264.285156 212.054688 L 267.039062 214.804688 C 269.96875 206.257812 271.5625 197.089844 271.5625 187.554688 C 271.5625 141.5 234.503906 104.109375 188.585938 103.558594 L 190.546875 105.984375 C 204.160156 122.824219 212.558594 139.398438 215.664062 155.5 C 213.195312 156.621094 210.835938 157.84375 208.589844 159.160156 C 206.289062 144.78125 199.269531 129.84375 187.59375 114.523438 C 175.914062 129.84375 168.894531 144.78125 166.59375 159.15625 C 164.347656 157.84375 161.988281 156.621094 159.519531 155.5 C 162.625 139.398438 171.023438 122.824219 184.640625 105.984375 L 186.601562 103.558594 C 140.648438 104.070312 103.550781 141.476562 103.550781 187.554688 C 103.550781 231.605469 137.460938 267.734375 180.601562 271.269531 C 180.601562 265.902344 180.601562 247.597656 180.601562 240.433594 " fill-opacity="1" fill-rule="nonzero"/></g><path fill="#561d32" d="M 243.640625 236.609375 L 236.902344 236.609375 L 236.902344 229.871094 L 243.640625 229.871094 Z M 243.640625 247.496094 L 236.902344 247.496094 L 236.902344 240.757812 L 243.640625 240.757812 Z M 230.871094 236.609375 L 224.132812 236.609375 L 224.132812 229.871094 L 230.871094 229.871094 Z M 230.871094 247.496094 L 224.132812 247.496094 L 224.132812 240.757812 L 230.871094 240.757812 Z M 233.886719 191.910156 L 200.699219 225.09375 L 200.699219 270.53125 C 229.039062 266.078125 252.675781 247.460938 264.128906 222.152344 L 233.886719 191.910156 " fill-opacity="1" fill-rule="nonzero"/></svg>