<svg xmlns="http://www.w3.org/2000/svg" xmlns:xlink="http://www.w3.org/1999/xlink" width="800" zoomAndPan="magnify" viewBox="0 0 375 374.999991" height="800" preserveAspectRatio="xMidYMid meet" version="1.0"><defs><clipPath id="fad3170dd2"><path d="M 172 92.449219 L 192 92.449219 L 192 131 L 172 131 Z M 172 92.449219 " clip-rule="nonzero"/></clipPath><clipPath id="b979be71a5"><path d="M 108 173 L 256 173 L 256 240.199219 L 108 240.199219 Z M 108 173 " clip-rule="nonzero"/></clipPath></defs><path fill="#ae3e2f" d="M 191.664062 175.855469 C 191.664062 177.105469 191.601562 178.347656 191.480469 179.574219 C 191.359375 180.800781 191.175781 181.996094 190.9375 183.152344 C 190.699219 184.308594 190.40625 185.40625 190.058594 186.445312 C 189.710938 187.488281 189.316406 188.449219 188.875 189.335938 C 188.433594 190.222656 187.953125 191.011719 187.433594 191.707031 C 186.914062 192.402344 186.363281 192.988281 185.785156 193.46875 C 185.207031 193.949219 184.613281 194.308594 184 194.554688 C 183.386719 194.796875 182.769531 194.917969 182.144531 194.917969 C 181.519531 194.917969 180.898438 194.796875 180.285156 194.554688 C 179.671875 194.308594 179.078125 193.949219 178.5 193.46875 C 177.921875 192.988281 177.375 192.402344 176.855469 191.707031 C 176.332031 191.011719 175.851562 190.222656 175.410156 189.335938 C 174.96875 188.449219 174.574219 187.488281 174.226562 186.445312 C 173.878906 185.40625 173.585938 184.308594 173.347656 183.152344 C 173.109375 181.996094 172.925781 180.800781 172.804688 179.574219 C 172.683594 178.347656 172.621094 177.105469 172.621094 175.855469 C 172.621094 174.601562 172.683594 173.363281 172.804688 172.136719 C 172.925781 170.90625 173.109375 169.714844 173.347656 168.558594 C 173.585938 167.402344 173.878906 166.304688 174.226562 165.261719 C 174.574219 164.222656 174.96875 163.257812 175.410156 162.375 C 175.851562 161.488281 176.332031 160.699219 176.855469 160.003906 C 177.375 159.308594 177.921875 158.722656 178.5 158.242188 C 179.078125 157.761719 179.671875 157.402344 180.285156 157.15625 C 180.898438 156.914062 181.519531 156.789062 182.144531 156.789062 C 182.769531 156.789062 183.386719 156.914062 184 157.15625 C 184.613281 157.402344 185.207031 157.761719 185.785156 158.242188 C 186.363281 158.722656 186.914062 159.308594 187.433594 160.003906 C 187.953125 160.699219 188.433594 161.488281 188.875 162.375 C 189.316406 163.257812 189.710938 164.222656 190.058594 165.261719 C 190.40625 166.304688 190.699219 167.402344 190.9375 168.558594 C 191.175781 169.714844 191.359375 170.90625 191.480469 172.136719 C 191.601562 173.363281 191.664062 174.601562 191.664062 175.855469 Z M 191.664062 175.855469 " fill-opacity="1" fill-rule="nonzero"/><path fill="#ae3e2f" d="M 215.464844 140.109375 C 215.464844 141.359375 215.402344 142.601562 215.28125 143.828125 C 215.160156 145.054688 214.976562 146.25 214.738281 147.40625 C 214.5 148.5625 214.207031 149.660156 213.859375 150.699219 C 213.511719 151.742188 213.117188 152.703125 212.675781 153.589844 C 212.234375 154.476562 211.753906 155.265625 211.230469 155.960938 C 210.710938 156.65625 210.164062 157.242188 209.585938 157.722656 C 209.007812 158.203125 208.414062 158.5625 207.800781 158.808594 C 207.1875 159.050781 206.566406 159.171875 205.941406 159.171875 C 205.316406 159.171875 204.699219 159.050781 204.085938 158.808594 C 203.472656 158.5625 202.878906 158.203125 202.300781 157.722656 C 201.722656 157.242188 201.175781 156.65625 200.652344 155.960938 C 200.132812 155.265625 199.652344 154.476562 199.210938 153.589844 C 198.769531 152.703125 198.375 151.742188 198.027344 150.699219 C 197.679688 149.660156 197.386719 148.5625 197.148438 147.40625 C 196.910156 146.25 196.726562 145.054688 196.605469 143.828125 C 196.484375 142.601562 196.421875 141.359375 196.421875 140.109375 C 196.421875 138.855469 196.484375 137.617188 196.605469 136.390625 C 196.726562 135.160156 196.910156 133.96875 197.148438 132.8125 C 197.386719 131.65625 197.679688 130.558594 198.027344 129.515625 C 198.375 128.476562 198.769531 127.511719 199.210938 126.628906 C 199.652344 125.742188 200.132812 124.953125 200.652344 124.257812 C 201.175781 123.5625 201.722656 122.976562 202.300781 122.496094 C 202.878906 122.015625 203.472656 121.65625 204.085938 121.410156 C 204.699219 121.167969 205.316406 121.042969 205.941406 121.042969 C 206.566406 121.042969 207.1875 121.167969 207.800781 121.410156 C 208.414062 121.65625 209.007812 122.015625 209.585938 122.496094 C 210.164062 122.976562 210.710938 123.5625 211.230469 124.257812 C 211.753906 124.953125 212.234375 125.742188 212.675781 126.628906 C 213.117188 127.511719 213.511719 128.476562 213.859375 129.515625 C 214.207031 130.558594 214.5 131.65625 214.738281 132.8125 C 214.976562 133.96875 215.160156 135.160156 215.28125 136.390625 C 215.402344 137.617188 215.464844 138.855469 215.464844 140.109375 Z M 215.464844 140.109375 " fill-opacity="1" fill-rule="nonzero"/><g clip-path="url(#fad3170dd2)"><path fill="#ae3e2f" d="M 191.664062 111.511719 C 191.664062 112.765625 191.601562 114.003906 191.480469 115.230469 C 191.359375 116.460938 191.175781 117.652344 190.9375 118.808594 C 190.699219 119.964844 190.40625 121.0625 190.058594 122.105469 C 189.710938 123.144531 189.316406 124.109375 188.875 124.992188 C 188.433594 125.878906 187.953125 126.667969 187.433594 127.363281 C 186.914062 128.058594 186.363281 128.648438 185.785156 129.125 C 185.207031 129.605469 184.613281 129.964844 184 130.210938 C 183.386719 130.453125 182.769531 130.578125 182.144531 130.578125 C 181.519531 130.578125 180.898438 130.453125 180.285156 130.210938 C 179.671875 129.964844 179.078125 129.605469 178.5 129.125 C 177.921875 128.648438 177.375 128.058594 176.855469 127.363281 C 176.332031 126.667969 175.851562 125.878906 175.410156 124.992188 C 174.96875 124.109375 174.574219 123.144531 174.226562 122.105469 C 173.878906 121.0625 173.585938 119.964844 173.347656 118.808594 C 173.109375 117.652344 172.925781 116.460938 172.804688 115.230469 C 172.683594 114.003906 172.621094 112.765625 172.621094 111.511719 C 172.621094 110.261719 172.683594 109.019531 172.804688 107.792969 C 172.925781 106.566406 173.109375 105.375 173.347656 104.214844 C 173.585938 103.058594 173.878906 101.960938 174.226562 100.921875 C 174.574219 99.878906 174.96875 98.917969 175.410156 98.03125 C 175.851562 97.144531 176.332031 96.355469 176.855469 95.660156 C 177.375 94.964844 177.921875 94.378906 178.5 93.898438 C 179.078125 93.417969 179.671875 93.058594 180.285156 92.8125 C 180.898438 92.570312 181.519531 92.449219 182.144531 92.449219 C 182.769531 92.449219 183.386719 92.570312 184 92.8125 C 184.613281 93.058594 185.207031 93.417969 185.785156 93.898438 C 186.363281 94.378906 186.914062 94.964844 187.433594 95.660156 C 187.953125 96.355469 188.433594 97.144531 188.875 98.03125 C 189.316406 98.917969 189.710938 99.878906 190.058594 100.921875 C 190.40625 101.960938 190.699219 103.058594 190.9375 104.214844 C 191.175781 105.375 191.359375 106.566406 191.480469 107.792969 C 191.601562 109.019531 191.664062 110.261719 191.664062 111.511719 Z M 191.664062 111.511719 " fill-opacity="1" fill-rule="nonzero"/></g><path fill="#ae3e2f" d="M 232.527344 140.515625 C 229.378906 143.578125 226.921875 147.121094 225.148438 151.144531 C 222.9375 156.695312 224.601562 159.53125 225.792969 160.675781 C 226.417969 161.265625 227.132812 161.710938 227.9375 162.015625 C 228.742188 162.316406 229.574219 162.449219 230.433594 162.414062 C 232.152344 162.363281 233.804688 161.996094 235.382812 161.316406 C 239.402344 159.546875 242.941406 157.082031 246 153.929688 C 249.148438 150.867188 251.605469 147.324219 253.378906 143.300781 C 255.589844 137.75 253.925781 134.914062 252.734375 133.769531 C 251.542969 132.625 248.6875 130.910156 243.214844 133.125 C 239.171875 134.890625 235.609375 137.355469 232.527344 140.515625 Z M 232.527344 140.515625 " fill-opacity="1" fill-rule="nonzero"/><path fill="#ae3e2f" d="M 118.285156 154.003906 C 121.347656 157.15625 124.882812 159.617188 128.902344 161.390625 C 130.480469 162.070312 132.132812 162.433594 133.851562 162.484375 C 134.710938 162.519531 135.542969 162.386719 136.347656 162.085938 C 137.152344 161.785156 137.867188 161.335938 138.492188 160.746094 C 139.683594 159.53125 141.347656 156.695312 139.136719 151.214844 C 137.363281 147.191406 134.90625 143.648438 131.757812 140.585938 C 128.699219 137.433594 125.160156 134.972656 121.140625 133.199219 C 115.597656 130.980469 112.765625 132.648438 111.621094 133.839844 C 110.480469 135.03125 108.765625 137.894531 110.980469 143.375 C 112.730469 147.390625 115.164062 150.933594 118.285156 154.003906 Z M 118.285156 154.003906 " fill-opacity="1" fill-rule="nonzero"/><path fill="#ae3e2f" d="M 167.863281 140.109375 C 167.863281 141.359375 167.800781 142.601562 167.679688 143.828125 C 167.558594 145.054688 167.378906 146.25 167.136719 147.40625 C 166.898438 148.5625 166.605469 149.660156 166.257812 150.699219 C 165.910156 151.742188 165.515625 152.703125 165.074219 153.589844 C 164.632812 154.476562 164.152344 155.265625 163.632812 155.960938 C 163.113281 156.65625 162.5625 157.242188 161.984375 157.722656 C 161.40625 158.203125 160.8125 158.5625 160.199219 158.808594 C 159.585938 159.050781 158.96875 159.171875 158.34375 159.171875 C 157.71875 159.171875 157.097656 159.050781 156.484375 158.808594 C 155.871094 158.5625 155.277344 158.203125 154.699219 157.722656 C 154.121094 157.242188 153.574219 156.65625 153.054688 155.960938 C 152.535156 155.265625 152.050781 154.476562 151.609375 153.589844 C 151.167969 152.703125 150.773438 151.742188 150.425781 150.699219 C 150.078125 149.660156 149.785156 148.5625 149.546875 147.40625 C 149.308594 146.25 149.128906 145.054688 149.003906 143.828125 C 148.882812 142.601562 148.824219 141.359375 148.824219 140.109375 C 148.824219 138.855469 148.882812 137.617188 149.003906 136.390625 C 149.128906 135.160156 149.308594 133.96875 149.546875 132.8125 C 149.785156 131.65625 150.078125 130.558594 150.425781 129.515625 C 150.773438 128.476562 151.167969 127.511719 151.609375 126.628906 C 152.050781 125.742188 152.535156 124.953125 153.054688 124.257812 C 153.574219 123.5625 154.121094 122.976562 154.699219 122.496094 C 155.277344 122.015625 155.871094 121.65625 156.484375 121.410156 C 157.097656 121.167969 157.71875 121.042969 158.34375 121.042969 C 158.96875 121.042969 159.585938 121.167969 160.199219 121.410156 C 160.8125 121.65625 161.40625 122.015625 161.984375 122.496094 C 162.5625 122.976562 163.113281 123.5625 163.632812 124.257812 C 164.152344 124.953125 164.632812 125.742188 165.074219 126.628906 C 165.515625 127.511719 165.910156 128.476562 166.257812 129.515625 C 166.605469 130.558594 166.898438 131.65625 167.136719 132.8125 C 167.378906 133.96875 167.558594 135.160156 167.679688 136.390625 C 167.800781 137.617188 167.863281 138.855469 167.863281 140.109375 Z M 167.863281 140.109375 " fill-opacity="1" fill-rule="nonzero"/><g clip-path="url(#b979be71a5)"><path fill="#ae3e2f" d="M 134.28125 235.429688 L 115.5 235.429688 L 115.5 240.199219 L 248.785156 240.199219 L 248.785156 235.429688 L 230.003906 235.429688 C 241.453125 228.28125 257.136719 212.457031 255.875 181.027344 C 255.816406 180.050781 255.589844 179.117188 255.1875 178.226562 C 254.785156 177.335938 254.238281 176.542969 253.542969 175.855469 C 253.101562 175.394531 252.613281 174.996094 252.070312 174.660156 C 251.53125 174.324219 250.957031 174.0625 250.347656 173.871094 C 249.742188 173.679688 249.121094 173.566406 248.484375 173.53125 C 247.847656 173.496094 247.21875 173.539062 246.59375 173.664062 C 245.960938 173.789062 245.351562 173.992188 244.765625 174.269531 C 244.183594 174.550781 243.644531 174.898438 243.148438 175.316406 C 242.65625 175.734375 242.21875 176.203125 241.84375 176.730469 C 241.46875 177.257812 241.164062 177.824219 240.929688 178.429688 L 239.835938 181.21875 C 239.4375 180.628906 238.960938 180.109375 238.410156 179.660156 C 237.859375 179.210938 237.253906 178.855469 236.59375 178.589844 C 235.933594 178.320312 235.253906 178.15625 234.542969 178.09375 C 233.835938 178.03125 233.132812 178.074219 232.441406 178.222656 C 231.746094 178.367188 231.085938 178.613281 230.464844 178.957031 C 229.839844 179.300781 229.285156 179.730469 228.789062 180.242188 C 228.292969 180.75 227.886719 181.324219 227.5625 181.957031 C 227.238281 182.589844 227.011719 183.257812 226.886719 183.957031 C 225.175781 191.820312 224.605469 199.761719 225.175781 207.789062 L 218.773438 209.71875 L 221.582031 198.042969 C 221.777344 197.234375 221.851562 196.417969 221.800781 195.585938 C 221.746094 194.757812 221.574219 193.957031 221.273438 193.179688 C 220.976562 192.40625 220.570312 191.691406 220.054688 191.042969 C 219.539062 190.390625 218.933594 189.832031 218.25 189.367188 C 217.847656 189.097656 217.425781 188.867188 216.980469 188.675781 C 216.539062 188.488281 216.082031 188.339844 215.609375 188.234375 C 215.140625 188.128906 214.664062 188.070312 214.179688 188.054688 C 213.699219 188.039062 213.21875 188.070312 212.742188 188.144531 C 212.265625 188.21875 211.800781 188.335938 211.347656 188.496094 C 210.890625 188.660156 210.457031 188.863281 210.039062 189.105469 C 209.621094 189.347656 209.230469 189.628906 208.867188 189.945312 C 208.503906 190.261719 208.171875 190.609375 207.871094 190.988281 C 200.730469 199.757812 189.640625 215.222656 189.210938 225.519531 L 175.003906 225.519531 C 174.574219 215.222656 163.410156 199.757812 156.34375 190.988281 C 156.042969 190.609375 155.710938 190.261719 155.347656 189.945312 C 154.984375 189.628906 154.59375 189.347656 154.175781 189.105469 C 153.757812 188.863281 153.324219 188.660156 152.867188 188.496094 C 152.414062 188.335938 151.949219 188.21875 151.472656 188.144531 C 150.996094 188.070312 150.515625 188.039062 150.035156 188.054688 C 149.550781 188.070312 149.074219 188.128906 148.605469 188.234375 C 148.132812 188.339844 147.675781 188.488281 147.230469 188.675781 C 146.789062 188.867188 146.367188 189.097656 145.964844 189.367188 C 145.277344 189.832031 144.675781 190.390625 144.160156 191.042969 C 143.644531 191.691406 143.238281 192.40625 142.941406 193.179688 C 142.640625 193.957031 142.464844 194.757812 142.414062 195.585938 C 142.363281 196.417969 142.4375 197.234375 142.632812 198.042969 L 145.441406 209.71875 L 139.039062 207.789062 C 139.609375 199.761719 139.039062 191.820312 137.328125 183.957031 C 137.203125 183.257812 136.976562 182.589844 136.652344 181.957031 C 136.328125 181.324219 135.921875 180.75 135.425781 180.242188 C 134.929688 179.730469 134.371094 179.300781 133.75 178.957031 C 133.128906 178.613281 132.46875 178.367188 131.773438 178.222656 C 131.078125 178.074219 130.378906 178.03125 129.671875 178.09375 C 128.960938 178.15625 128.277344 178.320312 127.621094 178.589844 C 126.960938 178.855469 126.355469 179.210938 125.804688 179.660156 C 125.25 180.109375 124.777344 180.628906 124.378906 181.21875 L 123.285156 178.429688 C 123.171875 178.132812 123.039062 177.84375 122.890625 177.5625 C 122.738281 177.28125 122.574219 177.011719 122.390625 176.75 C 122.207031 176.492188 122.007812 176.246094 121.792969 176.011719 C 121.578125 175.777344 121.347656 175.554688 121.105469 175.347656 C 120.863281 175.144531 120.609375 174.953125 120.34375 174.78125 C 120.078125 174.605469 119.800781 174.449219 119.515625 174.308594 C 119.230469 174.171875 118.9375 174.050781 118.636719 173.949219 C 118.335938 173.84375 118.027344 173.761719 117.71875 173.699219 C 117.40625 173.632812 117.09375 173.589844 116.777344 173.566406 C 116.457031 173.542969 116.140625 173.539062 115.824219 173.550781 C 115.507812 173.566406 115.191406 173.601562 114.878906 173.660156 C 114.566406 173.714844 114.257812 173.789062 113.953125 173.882812 C 113.648438 173.976562 113.355469 174.089844 113.0625 174.21875 C 112.773438 174.351562 112.496094 174.5 112.222656 174.664062 C 111.953125 174.832031 111.691406 175.015625 111.445312 175.214844 C 111.199219 175.414062 110.960938 175.625 110.742188 175.855469 C 110.039062 176.539062 109.484375 177.328125 109.074219 178.21875 C 108.664062 179.113281 108.425781 180.046875 108.363281 181.027344 C 107.148438 212.457031 122.832031 228.28125 134.28125 235.429688 Z M 231.648438 184.980469 C 231.648438 184.667969 231.707031 184.363281 231.828125 184.070312 C 231.949219 183.777344 232.121094 183.519531 232.34375 183.296875 C 232.566406 183.074219 232.824219 182.902344 233.117188 182.78125 C 233.410156 182.660156 233.710938 182.597656 234.027344 182.597656 C 234.34375 182.597656 234.648438 182.660156 234.9375 182.78125 C 235.230469 182.902344 235.488281 183.074219 235.710938 183.296875 C 235.933594 183.519531 236.105469 183.777344 236.226562 184.070312 C 236.347656 184.363281 236.40625 184.667969 236.40625 184.980469 L 237.242188 188.054688 L 230.101562 206.523438 L 229.816406 206.523438 C 229.4375 199.261719 230.046875 192.078125 231.648438 184.980469 Z M 127.78125 184.980469 C 127.78125 184.667969 127.84375 184.363281 127.964844 184.070312 C 128.085938 183.777344 128.257812 183.519531 128.480469 183.296875 C 128.703125 183.074219 128.960938 182.902344 129.253906 182.78125 C 129.542969 182.660156 129.847656 182.597656 130.164062 182.597656 C 130.476562 182.597656 130.78125 182.660156 131.074219 182.78125 C 131.363281 182.902344 131.621094 183.074219 131.847656 183.296875 C 132.070312 183.519531 132.242188 183.777344 132.363281 184.070312 C 132.484375 184.363281 132.542969 184.667969 132.542969 184.980469 C 134.101562 192.050781 134.679688 199.199219 134.28125 206.429688 L 133.996094 206.429688 L 126.855469 187.960938 Z M 127.78125 184.980469 " fill-opacity="1" fill-rule="nonzero"/></g></svg>