<svg xmlns="http://www.w3.org/2000/svg" xmlns:xlink="http://www.w3.org/1999/xlink" width="500" zoomAndPan="magnify" viewBox="0 0 375 374.999991" height="500" preserveAspectRatio="xMidYMid meet" version="1.0"><path fill="#00361e" d="M 192.1875 165.789062 C 192.1875 165.789062 200.742188 145.96875 223.039062 152.945312 C 259.265625 164.28125 252.523438 272.371094 186.207031 268.855469 C 128.695312 265.808594 116.027344 154.703125 186.929688 127.257812 C 186.929688 127.257812 153.757812 130.476562 139.167969 168.21875 C 139.167969 168.21875 130.359375 129.425781 157.238281 116.152344 C 184.113281 102.875 204.082031 123.792969 230.398438 122.714844 C 179.21875 129.855469 189.210938 169.597656 149.457031 175.347656 C 140.890625 204.496094 155.660156 253.773438 190.082031 253.292969 C 246.234375 252.511719 234.628906 149.59375 205.800781 169.449219 C 208.785156 171.410156 211.421875 174.078125 213.585938 177.273438 C 218.164062 184.027344 220.652344 193.125 219.964844 202.960938 C 219.277344 212.796875 215.546875 221.460938 210.074219 227.515625 C 206.933594 230.988281 203.214844 233.597656 199.179688 235.058594 C 199.273438 234.105469 199.335938 233.128906 199.363281 232.128906 C 199.664062 222.160156 196.828125 209.582031 191.257812 194.816406 C 186.042969 180.996094 188.53125 171.632812 192.1875 165.789062 M 187.65625 196.167969 C 182.6875 182.992188 184.113281 173.367188 187.292969 166.707031 C 182.84375 168.074219 178.75 170.828125 175.335938 174.601562 C 169.863281 180.65625 166.132812 189.320312 165.445312 199.15625 C 164.757812 208.992188 167.246094 218.089844 171.824219 224.84375 C 176.308594 231.460938 182.800781 235.808594 190.242188 236.328125 C 191.914062 236.445312 193.566406 236.363281 195.183594 236.101562 C 195.367188 234.800781 195.480469 233.4375 195.519531 232.011719 C 195.804688 222.558594 193.054688 210.46875 187.65625 196.167969 Z M 187.65625 196.167969 " fill-opacity="1" fill-rule="evenodd"/></svg>